<svg width="22" height="21" viewBox="0 0 22 21" fill="none" xmlns="http://www.w3.org/2000/svg">
<path fill-rule="evenodd" clip-rule="evenodd" d="M5.34377 1H5.03295V3.53304H5.34377V1ZM5.03295 0H4.03295V1V1.68712H1H0.5V2.18712V6.56209V6.56259V7.06209V20V20.5H1H21H21.5V20V7.06209V6.56209V6.25009V2.18712V1.68712H21H17.8979L17.8979 1V0H16.8979H16.5871H15.5871V1V1.68712H13.5H6.34377V1V0H5.34377H5.03295ZM15.5871 2.68712H13.5H6.34377V3.53304V4.53304H5.34377H5.03295H4.03295V3.53304V2.68712H1.5V6.06209H20.5V2.68712H17.8979L17.8979 3.53304V4.53304H16.8979H16.5871H15.5871V3.53304V2.68712ZM20.5 7.06209H1.5V19.5H20.5V7.06209ZM16.5871 1H16.8979V3.53304H16.5871V1Z" fill="#6C757D"/>
</svg>
